<?xml version="1.0" standalone="no"?>
<!DOCTYPE svg PUBLIC "-//W3C//DTD SVG 20010904//EN"
 "http://www.w3.org/TR/2001/REC-SVG-20010904/DTD/svg10.dtd">
<svg version="1.0" xmlns="http://www.w3.org/2000/svg"
 width="512.000000pt" height="512.000000pt" viewBox="0 0 512.000000 512.000000"
 preserveAspectRatio="xMidYMid meet">
<metadata>
Created by potrace 1.11, written by Peter Selinger 2001-2013
</metadata>
<g transform="translate(0.000000,512.000000) scale(0.100000,-0.100000)"
fill="#000000" stroke="none">
<path d="M2340 4408 c-36 -19 -49 -32 -64 -70 -20 -48 -20 -48 0 -95 15 -39
28 -52 64 -70 24 -13 57 -23 72 -23 27 0 28 -2 28 -54 l0 -53 -91 -13 c-50 -6
-130 -22 -178 -35 -47 -13 -92 -25 -100 -27 -8 -2 -24 21 -41 62 l-28 65 46
25 c37 20 51 35 66 73 20 47 20 47 0 94 -22 55 -66 85 -122 86 -47 1 -364
-127 -398 -161 -37 -38 -48 -92 -28 -141 29 -73 98 -103 175 -77 24 8 44 14
44 13 11 -19 57 -138 54 -140 -2 -2 -38 -24 -79 -50 -41 -25 -106 -71 -144
-102 -38 -30 -72 -55 -76 -55 -3 0 -34 28 -68 63 l-63 63 22 20 c107 97 18
271 -120 234 -49 -13 -307 -270 -321 -320 -21 -72 30 -155 103 -167 49 -8 81
2 120 37 l34 29 66 -67 67 -68 -40 -53 c-21 -30 -58 -86 -82 -125 -23 -39 -43
-72 -43 -74 -2 -2 -146 57 -152 62 -2 2 4 21 13 44 23 56 12 107 -31 148 -57
53 -135 52 -187 -3 -23 -24 -133 -273 -159 -357 -11 -39 5 -101 35 -131 13
-13 42 -29 64 -36 57 -17 120 14 153 75 l23 44 70 -30 c39 -17 72 -31 74 -33
1 -1 -8 -43 -22 -92 -13 -50 -30 -132 -36 -182 l-13 -91 -73 0 -74 0 0 28 c0
15 -10 48 -23 72 -18 36 -31 49 -69 64 -48 20 -48 20 -95 0 -39 -15 -52 -28
-71 -64 -20 -41 -22 -58 -22 -220 0 -162 2 -179 23 -220 18 -36 31 -49 70 -64
47 -20 47 -20 95 0 38 15 51 28 69 64 13 24 23 57 23 72 l0 28 73 0 74 0 12
-87 c7 -49 23 -132 38 -186 14 -54 24 -100 22 -101 -2 -2 -36 -17 -75 -34
l-70 -30 -23 44 c-33 61 -96 92 -153 75 -22 -7 -51 -23 -64 -36 -30 -30 -46
-92 -35 -131 26 -84 136 -333 159 -357 52 -55 130 -56 187 -3 43 41 54 92 31
148 -9 23 -15 42 -13 44 3 3 148 64 152 64 1 0 21 -30 43 -68 22 -37 59 -92
81 -122 l41 -54 -67 -68 -67 -68 -26 24 c-35 33 -64 46 -100 46 -87 0 -153
-86 -130 -169 13 -49 270 -307 320 -321 108 -31 208 88 156 188 -8 15 -24 36
-35 46 l-22 20 63 63 c34 35 65 63 68 63 4 0 38 -25 76 -55 38 -31 103 -77
144 -102 41 -26 77 -48 79 -50 3 -2 -43 -121 -54 -140 0 -1 -20 5 -44 13 -77
26 -146 -4 -175 -77 -20 -49 -9 -103 28 -141 34 -34 351 -162 398 -161 56 1
100 31 122 86 20 47 20 47 0 95 -15 37 -29 52 -66 72 l-46 25 28 65 c17 41 33
64 41 62 8 -2 53 -14 100 -27 48 -13 128 -29 178 -35 l91 -13 0 -52 0 -52 -46
-6 c-144 -16 -181 -194 -53 -259 51 -26 387 -26 438 0 95 48 105 172 20 235
-15 11 -47 22 -73 24 l-46 6 0 52 0 52 91 13 c50 6 132 23 183 37 50 14 97 26
105 27 8 0 25 -26 41 -64 l28 -65 -46 -25 c-37 -20 -51 -35 -66 -73 -20 -47
-20 -47 0 -94 22 -55 66 -85 122 -86 47 -1 364 127 398 161 37 38 48 92 28
141 -29 73 -98 103 -175 77 -24 -8 -44 -14 -44 -13 -11 19 -55 131 -55 137 0
4 35 30 78 57 42 27 106 73 141 101 35 29 67 52 70 52 4 0 35 -28 69 -63 l63
-63 -22 -20 c-11 -10 -27 -31 -35 -46 -52 -100 48 -219 156 -188 50 14 307
272 320 321 23 83 -43 169 -130 169 -36 0 -65 -13 -100 -46 l-26 -24 -67 68
-67 68 41 54 c22 30 59 85 81 123 22 37 42 67 43 67 4 0 149 -61 152 -64 2 -2
-4 -21 -13 -44 -23 -56 -12 -107 31 -148 57 -53 135 -52 187 3 35 38 162 347
161 393 -1 89 -81 152 -164 130 -45 -12 -80 -44 -99 -89 l-12 -29 -71 30 c-40
17 -74 32 -76 34 -2 1 8 47 22 101 15 54 31 137 38 186 l12 87 72 0 72 0 6
-46 c16 -144 194 -181 259 -53 15 29 18 63 18 219 0 156 -3 190 -18 219 -48
95 -172 105 -235 20 -11 -15 -22 -47 -24 -73 l-6 -46 -72 0 -72 0 -13 91 c-6
50 -23 132 -36 182 -14 49 -23 91 -22 92 2 2 35 16 73 33 l71 29 26 -47 c22
-38 36 -51 73 -66 45 -17 48 -17 93 2 53 22 84 66 85 122 1 47 -125 356 -161
395 -52 55 -130 56 -187 3 -43 -41 -54 -92 -31 -148 9 -23 15 -42 13 -44 -6
-5 -150 -64 -152 -62 0 2 -20 35 -43 74 -24 39 -61 95 -82 125 l-40 53 67 68
67 68 26 -24 c35 -33 64 -46 100 -46 87 0 154 87 130 170 -14 50 -272 307
-321 320 -138 37 -227 -137 -120 -234 l22 -20 -63 -63 c-34 -35 -65 -63 -69
-63 -3 0 -35 23 -70 52 -35 28 -99 74 -141 101 -43 27 -78 53 -78 57 0 6 44
118 55 137 0 1 20 -5 44 -13 77 -26 146 4 175 77 20 49 9 103 -28 141 -34 34
-351 162 -398 161 -56 -1 -100 -31 -122 -86 -20 -47 -20 -47 0 -94 15 -38 29
-53 66 -73 l46 -25 -28 -65 c-16 -38 -33 -64 -41 -64 -8 1 -55 13 -105 27 -51
14 -133 31 -183 37 l-91 13 0 53 c0 52 1 54 28 54 15 0 48 10 72 23 36 18 49
31 64 70 20 47 20 47 0 95 -15 38 -28 51 -64 70 -41 20 -58 22 -220 22 -162 0
-179 -2 -220 -22z m437 -573 c479 -78 884 -425 1038 -888 45 -137 65 -265 65
-417 0 -453 -218 -857 -598 -1107 -434 -286 -1010 -286 -1444 0 -255 168 -439
406 -533 690 -125 379 -72 798 143 1132 198 308 531 530 886 589 110 19 331
19 443 1z"/>
<path d="M2170 3559 c-37 -11 -110 -74 -110 -95 0 -9 9 -10 36 -2 20 5 48 6
63 3 14 -4 35 -9 46 -10 25 -4 141 -47 182 -69 38 -19 43 -14 31 32 -29 106
-144 171 -248 141z"/>
<path d="M2852 3560 c-45 -10 -99 -56 -126 -105 -41 -77 -30 -98 34 -65 22 11
45 18 50 15 6 -3 10 -2 10 3 0 10 93 46 147 57 17 3 48 2 67 -4 28 -7 36 -6
36 4 0 24 -72 83 -116 94 -48 12 -55 12 -102 1z"/>
<path d="M2020 3366 c-49 -18 -82 -47 -291 -256 -257 -255 -281 -288 -309
-425 -25 -121 16 -301 88 -387 l25 -30 -18 -51 c-42 -117 -15 -240 72 -329 62
-63 129 -91 218 -91 89 0 156 28 218 91 55 56 83 116 92 198 7 59 8 61 51 84
58 30 153 132 183 197 l25 51 31 -24 c93 -70 225 -70 318 0 l33 25 24 -52 c32
-66 131 -172 189 -201 l45 -23 2 -65 c3 -84 32 -152 92 -211 65 -64 129 -90
217 -90 89 0 156 28 218 91 64 65 90 129 90 217 0 50 -6 84 -22 120 l-22 49
21 26 c11 14 37 59 57 100 69 144 69 280 -1 427 -32 67 -57 97 -209 251 -141
143 -252 246 -322 301 -6 4 -16 6 -23 3 -6 -2 -12 1 -12 7 0 5 -8 10 -17 10
-10 0 -46 2 -81 4 -34 2 -65 0 -68 -5 -3 -5 -12 -7 -19 -4 -8 3 -15 2 -17 -2
-3 -7 -135 -66 -148 -67 -3 0 -11 -4 -17 -8 -7 -5 -17 -5 -23 -2 -5 3 -10 1
-10 -5 0 -8 -9 -10 -25 -6 -14 4 -25 2 -25 -4 0 -6 -34 -10 -85 -10 -51 0 -85
4 -85 10 0 6 -11 8 -25 4 -16 -4 -25 -2 -25 6 0 6 -5 8 -10 5 -6 -4 -17 -1
-25 5 -8 7 -15 10 -15 6 0 -3 -27 7 -60 24 -33 17 -61 30 -62 29 -2 0 -16 5
-33 12 -50 19 -144 17 -205 -5z m55 -424 c80 -38 144 -102 187 -189 30 -61 33
-75 33 -162 0 -87 -3 -102 -32 -163 -59 -124 -164 -200 -307 -221 -170 -24
-334 67 -408 229 -19 41 -23 66 -23 154 0 93 3 112 27 162 49 104 158 195 263
218 77 17 189 5 260 -28z m1317 0 c79 -38 149 -110 186 -190 24 -50 27 -69 27
-162 0 -88 -4 -113 -23 -154 -31 -69 -82 -127 -146 -170 -197 -130 -468 -52
-570 164 -28 58 -31 75 -31 160 0 86 3 102 31 160 38 80 78 128 146 171 70 45
128 59 229 56 74 -3 96 -8 151 -35z m-738 -283 c24 -27 28 -38 24 -73 -3 -27
-15 -52 -32 -71 -24 -26 -35 -30 -81 -30 -46 0 -57 4 -81 30 -40 43 -44 101
-9 143 49 59 126 59 179 1z m-946 -523 c51 -27 188 -51 234 -42 24 5 28 2 28
-18 0 -31 -38 -85 -79 -113 -47 -32 -125 -32 -172 0 -54 36 -79 82 -79 143 0
30 5 54 10 54 6 0 32 -11 58 -24z m1776 8 c14 -37 6 -111 -17 -145 -72 -107
-212 -107 -284 0 -13 19 -23 49 -23 68 0 31 2 33 25 27 41 -10 190 16 237 42
52 28 54 28 62 8z"/>
<path d="M1848 2890 c-145 -24 -256 -169 -245 -320 3 -36 13 -83 23 -105 l18
-40 8 70 c22 190 158 329 334 342 59 5 72 8 63 19 -23 28 -127 46 -201 34z"/>
<path d="M3163 2890 c-125 -26 -229 -135 -248 -262 -8 -55 9 -149 34 -179 18
-22 18 -21 24 55 7 93 33 152 99 222 64 68 140 105 228 112 48 3 67 8 64 17
-10 26 -136 48 -201 35z"/>
<path d="M2503 2000 c-142 -29 -246 -158 -246 -305 0 -88 26 -152 90 -217 62
-63 129 -91 218 -91 89 0 156 28 218 91 64 65 90 129 90 217 0 89 -28 156 -91
218 -76 74 -181 107 -279 87z m148 -163 c107 -72 107 -212 0 -284 -47 -32
-125 -32 -172 0 -53 36 -79 82 -79 142 0 94 71 165 165 165 38 0 61 -6 86 -23z"/>
</g>
</svg>
